<svg width="1024" height="829" viewBox="0 0 1024 829" fill="none" xmlns="http://www.w3.org/2000/svg">
    <path
        d="M778.77 290.164C779.174 290.164 651.434 213.56 651.059 211.307C648.17 195.025 644.53 168.138 626.909 154.23C611.743 142.363 509.366 93.3969 509.164 92.8862C490.314 63.2555 473.61 32.2078 459.189 0C445.494 10.719 434.356 24.5724 426.636 40.4871C418.917 56.4018 414.824 73.9507 414.673 91.7747C364.382 99.2701 317.181 121.495 278.585 155.852C378.68 131.999 407.509 153.989 407.509 153.989C374.739 160.06 343.161 171.734 314.059 188.536C271.392 212.929 252.153 242.219 252.153 242.219C252.153 242.219 349.041 213.41 423.397 241.438C388.723 246.525 356.491 262.911 331.333 288.242C485.447 308.099 561.45 447.188 593.428 559.57C605.186 359.679 509.482 283.766 509.482 283.766C537.271 285.838 572.225 308.309 594.584 341.744C662.758 333.753 700.716 355.473 700.398 355.473C699.647 355.473 737.259 343.457 763.777 330.749C761.495 327.174 751.905 314.768 746.445 307.828C747.196 307.888 768.168 306.597 778.77 290.164ZM565.899 201.694C567.401 201.303 600.795 191.54 610.328 195.295C618.994 198.69 619.167 224.345 619.167 224.345C619.167 224.345 599.379 227.229 565.899 201.694Z"
        fill="#FFFFFF"
    />
    <path
        d="M66.4409 689.177C33.3938 689.177 0 713.21 0 758.842C0 804.474 33.336 828.236 66.2676 828.236C99.1992 828.236 132.535 804.414 132.535 758.842C132.535 713.27 99.257 689.177 66.4409 689.177ZM66.2098 801.109C48.0107 801.109 29.5806 786.69 29.5806 759.052C29.5806 730.964 48.1264 716.274 66.4409 716.274C87.8754 716.274 102.839 733.668 102.839 758.571C102.839 786.509 84.4088 801.109 66.2098 801.109Z"
        fill="#FFFFFF"
    />
    <path
        d="M782.393 689.177C749.346 689.177 715.952 713.21 715.952 758.842C715.952 804.474 749.288 828.236 782.22 828.236C815.151 828.236 848.458 804.414 848.458 758.842C848.458 713.27 815.209 689.177 782.393 689.177ZM782.162 801.109C763.934 801.109 745.533 786.69 745.533 759.052C745.533 730.964 764.079 716.274 782.393 716.274C803.799 716.274 818.762 733.668 818.762 758.571C818.762 786.509 800.361 801.109 782.162 801.109Z"
        fill="#FFFFFF"
    />
    <path d="M208.593 827.758H201.429L200.937 826.736L137.299 692.664H170.49L205.357 774.496L240.253 692.664H272.693L208.593 827.758Z" fill="#FFFFFF" />
    <path
        d="M342.369 828.236C302.822 828.236 277.285 800.899 277.285 758.601C277.285 718.377 304.15 689.177 341.155 689.177C378.16 689.177 401.501 716.214 401.501 758.271C401.501 759.352 401.501 760.524 401.501 761.726C401.501 762.927 401.501 764.159 401.501 765.421V767.253H307.155C310.044 789.363 322.754 801.019 344.275 801.019C350.753 801.121 357.181 799.819 363.149 797.197C369.117 794.575 374.495 790.69 378.94 785.788L380.298 784.376L396.273 804.414L395.233 805.615C381.771 821.086 364.93 828.236 342.369 828.236ZM307.704 744.903H371.574C368.916 725.917 357.795 715.072 340.866 715.072C323.938 715.072 311.575 726.698 307.704 744.903Z"
        fill="#FFFFFF"
    />
    <path
        d="M657.276 827.757H649.91L617.672 746.677L585.434 827.757H577.807L525.897 692.663H557.499L583.643 767.796L614.09 691.912H621.687L652.828 767.796L678.278 692.663H709.678L657.276 827.757Z"
        fill="#FFFFFF"
    />
    <path
        d="M502.496 692.873H501.254C492.342 692.601 483.514 694.736 475.631 699.069C467.748 703.402 461.08 709.786 456.276 717.597L455.67 692.633H427.765V825.023H456.652V762.238C456.652 749.29 463.094 738.836 474.793 731.686C485.626 725.077 500.618 722.043 510.527 724.596C508.245 715.074 502.496 692.873 502.496 692.873Z"
        fill="#FFFFFF"
    />
    <path
        d="M973.36 825.023H944.473V719.009H918.821L925.436 692.633H944.473V685.363C944.473 654.421 961.516 635.946 990.115 635.946C1001.76 635.742 1013.16 639.393 1022.67 646.37L1024 647.362L1011.17 670.012L1009.56 668.631C1004.68 664.231 998.419 661.848 991.964 661.931C980.149 661.931 973.36 670.043 973.36 684.222V692.723H1015.07V719.099H973.36V825.023Z"
        fill="#FFFFFF"
    />
    <path d="M900.104 825.019H871.217V639.157H900.104V825.019Z" fill="#FFFFFF" />
</svg>
